<svg id="Layer_1" data-name="Layer 1" xmlns="http://www.w3.org/2000/svg" viewBox="0 0 2135.69 1355.15"><defs><style>.cls-1{font-size:411.45px;letter-spacing:0.31em;}.cls-1,.cls-4,.cls-9{fill:#fff;}.cls-1,.cls-4{font-family:ApexMk3-Medium, Apex Mk3;font-weight:500;}.cls-2{letter-spacing:0.3em;}.cls-3{letter-spacing:0.31em;}.cls-4{font-size:566.74px;letter-spacing:0.04em;}.cls-5{letter-spacing:0.04em;}.cls-6{letter-spacing:-0.06em;}.cls-7{letter-spacing:0.04em;}.cls-8{letter-spacing:0.04em;}.cls-10{font-size:94.16px;font-family:AvenirNextLTPro-Bold, Avenir Next LT Pro;font-weight:700;letter-spacing:0.08em;}.cls-10,.cls-12{fill:#fdbc5a;}.cls-11{letter-spacing:0.05em;}</style></defs><title>Color WS1</title><text class="cls-1" transform="translate(-19.83 1136.1)">Soc<tspan class="cls-2" x="1056.6" y="0">ial</tspan><tspan class="cls-3" x="1951.09" y="0">s</tspan></text><text class="cls-4" transform="translate(660.11 681.73)">E<tspan class="cls-5" x="303.77" y="0">A</tspan><tspan class="cls-6" x="654.58" y="0">L</tspan><tspan class="cls-7" x="877.3" y="0">T</tspan><tspan class="cls-8" x="1190.71" y="0">H</tspan></text><path class="cls-9" d="M100.79,574.13l-42.93,40.4L0,669,4,197.83l56.92,55.44-2.3,269.32,42.93-40.41,58.79-55.34,77.85-73.26L285.83,400l-37.76,35.55-88.49,83.28ZM62,128.32l42.24,41.13-2.41,282.86L160.62,397l2.08-244.08L104.86,96.56,62.62,55.43,5.7,0,4.63,126.1l56.92,55.44ZM377.33,435.41l17.61,17.15,40.74,39.67.62-72.88-3-2.92L415.7,399.29,369.92,354.7l-38.38,36.12-28,26.37-37.77,35.55L159.29,553,100.5,608.29l-.76,88.39,58.8-55.34,153-144,37.76-35.55ZM560.23,50.49,517.3,90.9l-57.85,54.45-3.59,420.2-20.64-20.11-68.3-66.51-37.77,35.54,105.46,102.7,20.64,20.11,56.92,55.42,4.35-509.85,42.93-40.41L556.09,536l57.85,56.33L619-4.84Z"/><text class="cls-10" transform="translate(809.98 1355.04)">Estd<tspan class="cls-11" x="228.32" y="0">.</tspan><tspan x="261.18" y="0" xml:space="preserve"> 2020</tspan></text><path class="cls-12" d="M433.1,1310.51q8.31-2,16.63-3.58t16.64-3a19.19,19.19,0,0,1,4.15,0c1.39.08,2.78,0,4.16,0H666c5.54,1,11.09,1.92,16.63,3l8.32,1.65c2.77.61,5.55,1.17,8.32,1.83-2.77.67-5.55,1.23-8.32,1.84l-8.32,1.65c-5.54,1.1-11.09,2.06-16.63,3H474.68c-1.38,0-2.77,0-4.16,0a19.19,19.19,0,0,1-4.15,0q-8.33-1.36-16.64-3T433.1,1310.51Z"/><path class="cls-12" d="M1468.71,1310.51q8.32-2,16.64-3.58t16.63-3a19.28,19.28,0,0,1,4.16,0c1.39.08,2.77,0,4.16,0h191.29c5.55,1,11.09,1.92,16.64,3l8.32,1.65c2.77.61,5.54,1.17,8.31,1.83-2.77.67-5.54,1.23-8.31,1.84l-8.32,1.65c-5.55,1.1-11.09,2.06-16.64,3H1510.3c-1.39,0-2.77,0-4.16,0a19.29,19.29,0,0,1-4.16,0q-8.31-1.36-16.63-3T1468.71,1310.51Z"/></svg>