<svg id="b251b6a4-db3e-45dc-9dc8-6177b6aba7e9" data-name="Layer 1" xmlns="http://www.w3.org/2000/svg" viewBox="0 0 3061.42 3061.42"><defs><style>.f0e5f5ce-9feb-4300-9d78-22a909098fc0{fill:#231f20;}</style></defs><title>Sahej-Final</title><path d="M1999.75,2325.28c-123.21-38.31-286.39-61.93-472.32-61.93s-349.11,23.62-472.32,61.93c24.6-24,58.24-45.71,99.06-64.41q19.1-8.73,40.23-16.56,26-9.63,54.91-17.73,25.89-7.26,53.82-13.16,26.94-5.7,55.58-10,35-5.27,72.12-8.35,27.47-2.27,55.93-3.23,20.1-.68,40.65-.69h0q20.58,0,40.75.69,28.33,1,55.7,3.22,37.15,3,72.22,8.35,28.41,4.28,55.2,9.94,27.69,5.82,53.43,13,3.91,1.08,7.77,2.21,24.51,7.13,47,15.39,20.68,7.62,39.47,16.15C1940.57,2279,1974.8,2301,1999.75,2325.28Z"/><path d="M1574.2,2142.23q-20.16-.67-40.75-.69h0q-20.54,0-40.65.69l40.71-1791.54Z"/><path d="M1702.12,2153.8q-35-5.27-72.22-8.35l36-1508.13Z"/><path d="M1436.83,2145.46q-37.1,3-72.12,8.35l36.15-1516.49Z"/><path d="M1810.75,2176.76q-25.71-7.17-53.43-13l26.57-1239.4Z"/><path d="M1309.13,2163.83q-27.9,5.88-53.82,13.16l27.06-1252.65Z"/><path d="M1905,2210.5q-18.76-8.51-39.47-16.14l19.57-983.21Z"/><path d="M1200.4,2194.72q-21.11,7.82-40.23,16.56l20.28-1000.13Z"/><path d="M1116.28,2484.53a52.39,52.39,0,0,1,8.82,14.3q3.4,8.11,3.41,21a64.22,64.22,0,0,1-3.64,21.69,51,51,0,0,1-10.94,18,52.65,52.65,0,0,1-17.88,12.28,61.09,61.09,0,0,1-24.23,4.52q-14.82,0-25.4-3.69a72.7,72.7,0,0,1-18.82-9.64l-.71-.71c-1.72-.16-2.9.23-3.52,1.19a5,5,0,0,0-.71,1.66,5.49,5.49,0,0,1-.71,2.86,4.41,4.41,0,0,1-1.64,2,5.17,5.17,0,0,1-3.06.84,6.17,6.17,0,0,1-3.41-.84,5.94,5.94,0,0,1-2-2,4.43,4.43,0,0,1-.94-2.86v-50.47l7.06.24a26.7,26.7,0,0,0,.7,5.95v.24a49.49,49.49,0,0,0,2.24,8.33q1.51,4.29,3.05,7.74t3.89,8c.62,1,1.25,1.94,1.88,3s1.33,2.11,2.11,3.22a40.59,40.59,0,0,0,16.71,14,51.17,51.17,0,0,0,22.11,5,37.16,37.16,0,0,0,13-2.5,39.74,39.74,0,0,0,12.23-7.26A38.28,38.28,0,0,0,1105,2549a33.32,33.32,0,0,0,3.53-15.59q0-10-3.53-17a37.19,37.19,0,0,0-9.53-12,58.05,58.05,0,0,0-13.76-8.45,156.38,156.38,0,0,0-16-6.08q-3.3-.95-8.35-2.73c-3.38-1.19-6.94-2.66-10.71-4.41a123.18,123.18,0,0,1-11.41-6.07,57.4,57.4,0,0,1-10.23-7.73,39.41,39.41,0,0,1-10.35-15.48q-3.52-9.28-3.53-22.14a34.94,34.94,0,0,1,5.41-18.57,57.51,57.51,0,0,1,12-14.28,44.49,44.49,0,0,1,17.53-9.52,76.89,76.89,0,0,1,21.28-2.86,77.73,77.73,0,0,1,20.59,2.38,85.27,85.27,0,0,1,12.11,4.05c.78.32,1.57.67,2.35,1.07s1.57.75,2.36,1.07a3.07,3.07,0,0,0,3.29-1.43,3,3,0,0,0,.47-1.67v-.71a9.5,9.5,0,0,1,.47-1.67.21.21,0,0,1,.23-.23,4.89,4.89,0,0,1,1.53-2,5.14,5.14,0,0,1,3.18-.83,5.82,5.82,0,0,1,3.29.8,6.54,6.54,0,0,1,1.88,1.94,5.56,5.56,0,0,1,1.18,2.75V2442l-7.06-.23a29.68,29.68,0,0,0-.94-7.62c-.31-1.11-.67-2.3-1.06-3.57s-.82-2.54-1.29-3.81c-.79-1.75-1.49-3.37-2.12-4.88s-1.25-2.9-1.88-4.17a77.74,77.74,0,0,0-4.47-7.38,45.94,45.94,0,0,0-6.35-7.38q-11.05-10.95-30.34-10.95a33.72,33.72,0,0,0-15.65,3.34,31.65,31.65,0,0,0-10.46,8.34,32.51,32.51,0,0,0-5.77,10.73,36.72,36.72,0,0,0-1.76,10.73,33.68,33.68,0,0,0,2,11.2,29.62,29.62,0,0,0,7.17,11,37.68,37.68,0,0,0,7.29,5.25q4.25,2.38,8.59,4.41a85.22,85.22,0,0,0,8.59,3.46q4.23,1.42,7.29,2.38a228.31,228.31,0,0,1,25.52,8.7A51.35,51.35,0,0,1,1116.28,2484.53Z"/><path d="M1348.22,2558a7.19,7.19,0,0,1-.48-1.66c-.15-.8-.47-2-.94-3.57q-4.69-14.29-8.7-26.91-1.65-5.23-3.41-10.59T1331.4,2505q-1.55-4.87-2.71-8.81c-.79-2.61-1.41-4.64-1.88-6.07a9.52,9.52,0,0,0-2.35-1.78,16.62,16.62,0,0,0-1.89-.84h-44.45a14.08,14.08,0,0,0-2.24.84,6.26,6.26,0,0,0-2.47,2.5l-20.93,61.9-.47,1.42a12.56,12.56,0,0,0-.71,7,11.6,11.6,0,0,0,2.59,5.11,12.22,12.22,0,0,0,4.35,3.22,11.7,11.7,0,0,0,4.59,1.07l6.11,5.95h-54.57l6.12-5.95h11.29a11.47,11.47,0,0,0,5.64-1.31,13.33,13.33,0,0,0,3.77-3,14.16,14.16,0,0,0,2.58-4.52l63.51-187.59h8l60.46,188.3a9.45,9.45,0,0,0,2.35,4.05,9.32,9.32,0,0,0,3.53,2.86,12.36,12.36,0,0,0,5.64,1.19h8.94l6.12,5.95h-72.69l6.12-5.95a13,13,0,0,0,8.7-3.21,10.85,10.85,0,0,0,3.77-8.69Zm-26.59-83.35-18.34-57.82a2.49,2.49,0,0,1-.47-.71,2.71,2.71,0,0,0-1.89-1,1.88,1.88,0,0,0-1.88,1,1.39,1.39,0,0,0-.47.95l-19.52,57.82v.72c0,2.07.62,3.54,1.88,4.42a8.32,8.32,0,0,0,3.29,1.55h32a8.21,8.21,0,0,0,3.53-1.55c1.26-.88,1.88-2.35,1.88-4.42Z"/><path d="M1648.13,2570.59l5.65,5.95h-70.57l5.64-5.95,12,.24a5.28,5.28,0,0,0,2.82-.72,4.88,4.88,0,0,0,2.12-1.78,6.29,6.29,0,0,0,.94-3.69V2493a6.6,6.6,0,0,0-1.88-4.05,5.41,5.41,0,0,0-4-1.66h-82.33a5.7,5.7,0,0,0-4.24,1.66,5.88,5.88,0,0,0-1.64,4.29v71.42a6.91,6.91,0,0,0,.82,3.69,4.23,4.23,0,0,0,2,1.78,5.78,5.78,0,0,0,3.06.72l12-.24,5.64,5.95h-70.57l5.65-5.95,12,.24a5.34,5.34,0,0,0,2.83-.72,4.86,4.86,0,0,0,2.11-1.78,6.21,6.21,0,0,0,.95-3.69V2398a5.7,5.7,0,0,0-.95-3.57,5.12,5.12,0,0,0-2.11-1.66,5.34,5.34,0,0,0-2.83-.72h-12l-5.65-5.95h70.57l-5.64,5.95h-12a5.78,5.78,0,0,0-3.06.72,4.4,4.4,0,0,0-2,1.66,6.32,6.32,0,0,0-.82,3.57v77.37a5.87,5.87,0,0,0,1.64,4.29,5.7,5.7,0,0,0,4.24,1.66h82.33a5.63,5.63,0,0,0,4-1.54,6.06,6.06,0,0,0,1.88-3.93V2398a5.76,5.76,0,0,0-.94-3.57,5.15,5.15,0,0,0-2.12-1.66,5.28,5.28,0,0,0-2.82-.72h-12l-5.64-5.95h70.57l-5.65,5.95h-12a5.76,5.76,0,0,0-3.05.72,4.35,4.35,0,0,0-2,1.66,6.24,6.24,0,0,0-.83,3.57v166.65a6.82,6.82,0,0,0,.83,3.69,4.19,4.19,0,0,0,2,1.78,5.76,5.76,0,0,0,3.05.72Z"/><path d="M1882,2541.07l-5.88,35.71H1734.93l5.64-6,12,.24a5.28,5.28,0,0,0,2.82-.72,4.88,4.88,0,0,0,2.12-1.78,6.23,6.23,0,0,0,.94-3.69V2398.23a5.7,5.7,0,0,0-.94-3.57,5.26,5.26,0,0,0-2.12-1.67,5.37,5.37,0,0,0-2.82-.71h-12l-5.64-6h135.26l5.88,35.71h-5.88q0-8.8-3.65-14.52a33.69,33.69,0,0,0-8.12-9.05,38,38,0,0,0-11.76-6.19h-59.75a11,11,0,0,0-3.05,1.31q-1.89,1.07-1.89,4.4v66q.24,3.57,2.36,4.52a20.93,20.93,0,0,0,3.06,1.19h55.27a13.86,13.86,0,0,0,2.71-1.55c1-.71,1.53-2.1,1.53-4.16v-6.19l5.64-5.72v41.43l-5.88-5.72v-6.19a5.48,5.48,0,0,0-.7-2.85,5.37,5.37,0,0,0-1.65-2.15,5.57,5.57,0,0,0-3.53-1h-53.87a11.3,11.3,0,0,0-3.05,1.31q-1.89,1.08-1.89,4.4v83.8q.24,3.58,2.36,4.53a22.19,22.19,0,0,0,3.06,1.19h65.15a38.15,38.15,0,0,0,11.77-6.19,33.83,33.83,0,0,0,8.11-9q3.64-5.72,3.65-14.52Z"/><path d="M2050.14,2386.09l-5.65,5.95h-12a5.82,5.82,0,0,0-3.06.72,4.38,4.38,0,0,0-2,1.66,6.24,6.24,0,0,0-.83,3.57v202.6a47.58,47.58,0,0,1-3.53,18.33,48.68,48.68,0,0,1-9.88,15.23,46.1,46.1,0,0,1-15,10.48,47,47,0,0,1-19.05,3.81q-13.18,0-22-5.48a50.43,50.43,0,0,1-14-12.38,58.46,58.46,0,0,1-9.41-17.85h13.64a34.5,34.5,0,0,0,1.65,10.32,27.54,27.54,0,0,0,5.29,9.6,27,27,0,0,0,9.88,7.08,38.2,38.2,0,0,0,15.41,2.76,22.21,22.21,0,0,0,8.7-1.79,17.94,17.94,0,0,0,7.53-6.44q3.29-4.64,5.29-12.86a90.56,90.56,0,0,0,2-20.86V2398a5.72,5.72,0,0,0-.94-3.57,5.16,5.16,0,0,0-2.12-1.67,5.3,5.3,0,0,0-2.82-.72h-12l-5.64-5.95Z"/><path class="f0e5f5ce-9feb-4300-9d78-22a909098fc0" d="M2215.23,2476.38q12.93-2.3,25.87-4.14t25.88-3.44a41.11,41.11,0,0,1,6.47,0c2.15.09,4.31,0,6.46.06h297.57c8.62,1.1,17.25,2.22,25.87,3.46s17.25,2.56,25.88,4q-12.95,2.2-25.88,4c-8.62,1.25-17.25,2.37-25.87,3.47H2279.91c-2.15,0-4.31,0-6.46,0a38.83,38.83,0,0,1-6.47,0q-12.95-1.57-25.88-3.44T2215.23,2476.38Z"/><path class="f0e5f5ce-9feb-4300-9d78-22a909098fc0" d="M434.19,2476.38q12.94-2.3,25.88-4.14t25.87-3.44a41.1,41.1,0,0,1,6.47,0c2.16.09,4.31,0,6.47.06H796.44c8.63,1.1,17.25,2.22,25.88,3.46s17.25,2.56,25.87,4q-12.93,2.2-25.87,4c-8.63,1.25-17.25,2.37-25.88,3.47H498.88c-2.16,0-4.31,0-6.47,0a38.83,38.83,0,0,1-6.47,0q-12.93-1.57-25.87-3.44T434.19,2476.38Z"/><path d="M1269.23,2780c2.36-2.77,2.64-3.15,2.64-6v-58.13c0-2.86-.28-3.24-2.64-6h39v7.33c-2.17-2.19-8.61-3.81-14.66-3.81-5.67,0-11.82.19-12.77.19v25.64h15.42c2.74,0,5.58-1.62,6.43-2.86v9.15c-2.46-2.29-3.88-2.67-6.43-2.67h-15.42v32.3c5.49,1.34,18.82,1.15,20.62,1,5.49-.48,7.76-.76,11.26-6.58L1311,2780Z"/><path d="M1360.86,2734.76v9.72c-2.55-5.43-3.31-9.24-9.36-10.48-2.17-.38-5.77-.29-7.85,1.71a6.17,6.17,0,0,0-2.17,5.53c.37,4.29,4,6.39,8.7,9.43l1.79,1.15c7.47,4.57,12.2,8.1,12,15.63a12.82,12.82,0,0,1-7.28,11.34c-7.09,4-15.41,2.47-22.51-2.29v-12.29c2.08,5.33,4.54,11.62,10.88,13.24a9.67,9.67,0,0,0,8.61-1.9c2.55-2.1,3-4.77,2.83-7.53-.38-4.39-3.87-6.39-8.6-9.44l-2.18-1.42c-7.47-5-11.54-8.2-11.06-14.68.19-4.1,2.17-7.43,7.28-10S1354.34,2730.28,1360.86,2734.76Z"/><path d="M1396.14,2722.37v9.91h13.14v3.24h-13.14v28c0,6.29-.29,9.53,3.68,12,3.5,2.28,6.91,1.43,10.5-.29-2.65,4.19-4.54,5.24-8.13,5.82a11.34,11.34,0,0,1-9.17-2.48c-4.83-4.39-4.54-9.53-4.54-16.11v-27h-3.41Z"/><path d="M1466.59,2708.65v64.8c0,3.81.66,4.29,2.08,5.34l-9,2.29v-6.2c-6.25,5.62-14.57,7.34-20.15,5.43-7.75-2.57-11.06-9.24-12.58-16.58s-.28-20.3,8-27.64c5.77-5.24,12.77-6.29,20.14-4,.76.19,4.45,1.62,4.45,1.62v-17.06c0-3.52-.85-4.29-2.65-5.24Zm-31.11,36.4a28.81,28.81,0,0,0-1.71,11.44c.19,6.76,1.71,15.44,10,19.53,4.44,2,10.59.58,15.51-3.52v-24.4c0-4.38.47-8.86-3.22-11.91C1452.78,2733.52,1439.92,2732.76,1435.48,2745.05Z"/><path d="M1493.82,2776a4.93,4.93,0,0,1,4.83-4.86,4.82,4.82,0,1,1,0,9.63A4.91,4.91,0,0,1,1493.82,2776Z"/><path d="M1540.54,2708.65V2773c0,3.82,0,4.1,3.12,7.06h-15.41c3.31-3.15,3.31-3.34,3.31-7.06v-45.36c0-2.47.28-6.86-1.61-8.1-1-.66-3.88-.47-5.58-.47Z"/><path d="M1590,2776.88c7.09,1.53,14.09,2.19,20.9-3.72,6.62-5.9,10.31-17.44,11.07-23-8.23,6.67-16.37,7.72-23.65,5.05a22.35,22.35,0,0,1-13.52-16.39c-1.14-5.82-.19-16.68,7.28-23.45a23.46,23.46,0,0,1,23.17-5.9c9.17,2.66,13.9,10.19,16.17,18.87,2.84,11.62,1,32-10.78,44.31-7.28,7.53-16.17,10-24.21,8a13.76,13.76,0,0,1-3.69-1.14C1592.17,2779.26,1589.34,2777.07,1590,2776.88Zm5.48-55.56c-2.55,5.53-2.64,18.68,2,24.87,3.5,4.77,8.32,6.49,12.67,5.91,5.68-.76,9.74-4.86,11.83-10.38,2.27-6.1,2-17.63-2.84-23.54-4.26-5.15-9.27-6.1-13.62-5.34C1600.59,2713.8,1597.75,2716.08,1595.48,2721.32Z"/><path d="M1688,2738.86c8.61,5.24,14.19,10,14.85,19.72a21.35,21.35,0,0,1-7.94,17.92,22,22,0,0,1-20.15,3.81,20,20,0,0,1-13.8-13.44c-1.52-4.76-1.42-11.62,2.64-16.77,3-3.91,6.43-5.81,10.78-7.72-8.41-5.24-11.34-10.38-10.87-17.82a16.3,16.3,0,0,1,9.17-14c5.58-2.76,14.38-2.76,19.86.77,5.49,3.71,7.29,7.91,7,13C1699.13,2731.43,1696.11,2734.19,1688,2738.86Zm-20.8,25.92c1,5.53,3.59,9.62,9.36,11.72,3.4,1.43,9.08.57,12.39-2,5.3-4.29,5.86-9.91,5.39-14.1-1.23-9-9.46-12.77-17.68-16.3C1667.36,2751.06,1665.84,2757,1667.17,2764.78Zm25.72-43c-.57-4-2.36-7.05-6.15-8.77a12,12,0,0,0-10.4.67,10.43,10.43,0,0,0-4.73,9.43c.19,7,7.28,11.06,13.43,14.58C1692,2731.61,1693.46,2727.33,1692.89,2721.8Z"/><path d="M1735.45,2776.88c7.09,1.53,14.09,2.19,20.9-3.72,6.62-5.9,10.3-17.44,11.06-23-8.23,6.67-16.36,7.72-23.64,5.05a22.35,22.35,0,0,1-13.53-16.39c-1.13-5.82-.19-16.68,7.29-23.45a23.46,23.46,0,0,1,23.17-5.9c9.17,2.66,13.9,10.19,16.17,18.87,2.84,11.62,1,32-10.78,44.31-7.29,7.53-16.17,10-24.21,8a13.76,13.76,0,0,1-3.69-1.14C1737.62,2779.26,1734.78,2777.07,1735.45,2776.88Zm5.48-55.56c-2.55,5.53-2.65,18.68,2,24.87,3.5,4.77,8.32,6.49,12.67,5.91,5.67-.76,9.74-4.86,11.82-10.38,2.27-6.1,2-17.63-2.84-23.54-4.25-5.15-9.26-6.1-13.61-5.34C1746,2713.8,1743.2,2716.08,1740.93,2721.32Z"/></svg>