<svg id="f4120dce-5891-40fd-82d5-754397d7ac44" data-name="Layer 1" xmlns="http://www.w3.org/2000/svg" viewBox="0 0 819.81 923.81"><defs><style>.a0c381e2-f34f-4e44-85b0-870ae60e096d{fill:#fff;}</style></defs><title>WealthSocials</title><path class="a0c381e2-f34f-4e44-85b0-870ae60e096d change" d="M133.48,766.77,76.62,820.28.31,893.6V268.42L80.7,341.83l-3,356.68L134.52,645l77.86-73.29,103.1-97,63.07,61.42-50,47.08-117.2,110.3ZM82.11,176.35l55.94,54.48-3.2,374.6,77.87-73.28,2.75-323.25-76.6-74.6L82.94,79.83,1.76,12.21.31,172.87l81.2,74Zm417.61,406.7,23.33,22.71L577,658.3l.83-96.52-4-3.86-23.32-22.7-60.63-59.05L439.08,524,402,558.93,352,606,211,738.72,133.09,812l-1,117L210,855.77,412.6,665.06l50-47.08ZM742,73.28,685.1,126.8l-76.63,72.12-4.74,556.49-27.34-26.63-90.46-88.09-50,47.08,139.67,136,27.34,26.62,83.4,73.41-2.26-675.24,56.85-53.51-4.44,521.23,83.34,81.17V0Z"/></svg>